<?xml version="1.0" encoding="UTF-8"?>
<svg id="Layer_2" data-name="Layer 2" xmlns="http://www.w3.org/2000/svg" viewBox="0 0 70.35 85.87">
  <defs>
    <style>
      .cls-1 {
        fill: #ade0f2;
      }

      .cls-1, .cls-2 {
        stroke-width: 0px;
      }

      .cls-2 {
        fill: #fff;
      }
    </style>
  </defs>
  <g id="Layer_1-2" data-name="Layer 1">
    <g>
      <polygon class="cls-1" points="5.75 69.78 5.75 41.29 1.87 40.44 1.87 76.64 31.23 83.09 5.75 69.78"/>
      <polygon class="cls-1" points="64.81 69.55 38.73 83.18 68.48 76.64 68.48 40.44 64.81 41.24 64.81 69.55"/>
      <g>
        <path class="cls-2" d="M70.35,38.11l-5.53,1.21v-9.82l-29.75,15.55L5.75,29.74v9.64l-5.75-1.26v40.04l35.16,7.72h0s.01,0,.01,0h.01s0,0,0,0l.96-.21.04.02v-.03l34.16-7.5v-40.04ZM62.94,68.41l-26.7,13.95v-35.82l26.7-13.95v35.82ZM7.62,32.82l26.7,13.95v35.82l-26.7-13.95v-35.82ZM1.87,40.44l3.87.85v28.49l25.48,13.31-29.36-6.45v-36.21ZM68.48,76.64l-29.75,6.53,26.09-13.63v-28.31l3.66-.8v36.21Z"/>
        <polygon class="cls-2" points="12.69 47.46 29.24 55.83 29.24 53.37 12.69 45 12.69 47.46"/>
        <polygon class="cls-2" points="12.69 54.52 29.24 62.89 29.24 60.43 12.69 52.07 12.69 54.52"/>
        <polygon class="cls-2" points="12.69 61.94 29.24 70.31 29.24 67.85 12.69 59.48 12.69 61.94"/>
        <polygon class="cls-2" points="41.06 55.83 57.6 47.46 57.6 45 41.06 53.37 41.06 55.83"/>
        <polygon class="cls-2" points="41.06 62.89 57.6 54.52 57.6 52.07 41.06 60.43 41.06 62.89"/>
        <polygon class="cls-2" points="41.06 70.31 57.6 61.94 57.6 59.48 41.06 67.85 41.06 70.31"/>
        <path class="cls-2" d="M22.35,25.55c0-.47.03-.94.08-1.4l-13.33-1.85-.3,2.17,13.59,1.88c-.02-.27-.04-.53-.04-.81Z"/>
        <path class="cls-2" d="M26.76,15.91l-8.47-8.49-1.55,1.55,8.49,8.5c.46-.57.98-1.09,1.54-1.57Z"/>
        <path class="cls-2" d="M47.83,26.5l14.59-2.02-.3-2.17-14.31,1.98c.04.42.07.84.07,1.27,0,.32-.02.63-.05.94Z"/>
        <path class="cls-2" d="M45.42,18.05l9.05-9.07-1.55-1.55-8.94,8.96c.53.51,1.01,1.07,1.44,1.66Z"/>
        <path class="cls-2" d="M36.73,12.9V0h-2.2v12.82c.19,0,.39-.03.58-.03.55,0,1.09.05,1.62.11Z"/>
      </g>
    </g>
  </g>
</svg>