<?xml version="1.0" encoding="UTF-8"?>
<svg width="35px" height="35px" viewBox="0 0 35 35" version="1.1" xmlns="http://www.w3.org/2000/svg" xmlns:xlink="http://www.w3.org/1999/xlink">
    <!-- Generator: Sketch 48.2 (47327) - http://www.bohemiancoding.com/sketch -->
    <title>authority-record-on-blue</title>
    <desc>Created with Sketch.</desc>
    <defs></defs>
    <g id="exportable-assets" stroke="none" stroke-width="1" fill="none" fill-rule="evenodd" transform="translate(-159.000000, -659.000000)">
        <g id="authority-record-on-blue" transform="translate(159.000000, 659.000000)">
            <g id="Group-3" fill="#315375">
                <rect id="Rectangle-5" x="0" y="0" width="35" height="35"></rect>
            </g>
            <path d="M17.5,28.3293558 L14.5854044,28.3293558 C14.8362643,27.8489239 14.9593365,27.3604691 14.9168978,26.8621036 L20.1491179,26.8621036 C20.1052646,27.3604691 20.1656219,27.8503397 20.4145956,28.3293558 L17.5,28.3293558 Z M20.7973455,28.9003523 C20.9595556,28.9003523 21.0930018,29.0353263 21.0930018,29.202392 L21.0930018,30.6984323 C21.0930018,30.8645541 20.9595556,31 20.7973455,31 L14.2042577,31 C14.040633,31 13.9067153,30.8645541 13.9067153,30.6984323 L13.9067153,29.202392 C13.9067153,29.037214 14.040633,28.9003523 14.2042577,28.9003523 L20.7973455,28.9003523 Z M14.3613281,12.6788868 C13.8308443,12.6283896 13.4121158,12.0394122 13.4121158,11.3121573 C13.4121158,11.0540077 13.4677577,10.8156796 13.5592367,10.6094431 C13.5356596,9.6641533 13.4470099,8.58152984 13.7417231,7.66314045 C14.079818,6.14539108 15.6373183,5 17.4631255,5 C17.4753856,5 17.4876456,5.00094387 17.4999057,5.00141581 C17.5116942,5.00094387 17.5239543,5 17.5362144,5 C19.3620215,5 20.9195218,6.14539108 21.2576168,7.66314045 C21.55233,8.58152984 21.4641518,9.6641533 21.4401032,10.6094431 C21.5315822,10.8156796 21.587224,11.0540077 21.587224,11.3121573 C21.587224,12.0394122 21.1684955,12.6283896 20.6380118,12.6788868 C20.5743537,12.9639368 20.5309719,13.2622009 20.4489238,13.5411157 C20.3329247,13.9342392 19.883546,14.3811635 19.7793354,14.7785345 C19.7288805,14.9710848 19.981155,15.0574493 19.9476756,15.2499995 C19.9085377,15.4708661 19.7255797,15.6969239 19.6025075,15.8800354 C19.4572728,16.0961826 19.2945911,16.3010032 19.1055032,16.4803393 C18.8404971,16.7309378 18.5245645,16.9272636 18.1831688,17.0570463 C18.0096416,17.1231175 17.7913181,17.1721989 17.6078886,17.2019309 C17.5470598,17.2118416 17.5197104,17.2179768 17.4999057,17.2042906 C17.4796294,17.2179768 17.45228,17.2118416 17.3914512,17.2019309 C17.2080217,17.1721989 16.9901698,17.1231175 16.8161711,17.0570463 C16.4747753,16.9272636 16.1593143,16.7309378 15.8938367,16.4803393 C15.7052202,16.3010032 15.542067,16.0961826 15.3968324,15.8800354 C15.2737601,15.6969239 15.0908022,15.4708661 15.0521358,15.2499995 C15.0181848,15.0574493 15.2704593,14.9710848 15.2200044,14.7785345 C15.1157939,14.3811635 14.6664152,13.9342392 14.5504161,13.5411157 C14.4683679,13.2622009 14.4254577,12.9639368 14.3613281,12.6788868 Z M25.5949462,19.2984638 C25.810912,19.8393036 25.9061633,20.4188423 26,20.9931896 C24.2732165,22.1650091 22.9642184,23.8498242 21.3741817,25.2019237 C20.9695995,25.5454938 20.5470986,25.8678268 20.1245978,26.1901598 C19.3210918,26.1929914 18.3346278,26.1967669 17.5,26.2000704 L17.5,26.2010143 L17.3901309,26.2010143 L17.2741318,26.2010143 L17.2741318,26.2000704 C16.4743981,26.1967669 15.6746644,26.1929914 14.8749307,26.1901598 C14.4529014,25.8678268 14.0304005,25.5454938 13.6253467,25.2019237 C12.0353101,23.8498242 10.7267835,22.1650091 9,20.9931896 C9.09383668,20.4188423 9.18908798,19.8393036 9.40505381,19.2984638 C9.6205481,18.758096 9.9704316,18.2526515 10.4707367,17.9558031 C11.0346999,17.6211998 11.701459,17.582029 12.3276656,17.4461111 C12.6412404,17.3781522 12.9708477,17.3059459 13.2504715,17.1407679 C13.4570065,17.0185362 13.6220459,16.7816239 13.8601742,16.7268792 C13.9346777,16.7098894 14.0134251,16.7117772 14.0879285,16.6928997 C14.3435038,16.6277724 14.4976978,16.1209121 14.8008987,16.2398402 L15.051287,16.9586002 C15.1644569,17.6037381 15.8033951,18.1625115 16.2904971,18.5457243 C16.6036004,18.7925474 17.0506213,18.877968 17.4905692,18.8619221 C17.9154277,18.8491798 18.4416676,18.7566802 18.7090314,18.5457243 C19.1966049,18.1625115 19.8355431,17.6037381 19.948713,16.9586002 L20.1986298,16.2398402 C20.5018307,16.1209121 20.6560246,16.6277724 20.9115999,16.6928997 C20.9861034,16.7117772 21.0648508,16.7098894 21.1398258,16.7268792 C21.3779541,16.7816239 21.5429935,17.0185362 21.7490569,17.1407679 C22.0291523,17.3059459 22.358288,17.3781522 22.6718629,17.4461111 C23.298541,17.582029 23.9648286,17.6211998 24.5292633,17.9558031 C25.0295684,18.2526515 25.3789804,18.758096 25.5949462,19.2984638 Z" id="Combined-Shape" fill="#FFFFFF"></path>
        </g>
    </g>
</svg>