<svg xmlns="http://www.w3.org/2000/svg" width="50" height="50" viewBox="0 0 50 50">
    <g fill="none" fill-rule="evenodd">
        <path fill="#A03914" d="M0 0h50v50H0z"/>
        <path fill="#FFF" d="M25.411 18.463a6.86 6.86 0 0 1 6.863 6.86 6.86 6.86 0 0 1-6.863 6.858 6.86 6.86 0 0 1-6.863-6.859 6.86 6.86 0 0 1 6.863-6.859zm17.922 6.945c0 1.553-1.26 2.81-2.813 2.81a2.812 2.812 0 1 1 2.813-2.81zm-30.207 0c0 1.553-1.26 2.81-2.813 2.81a2.812 2.812 0 1 1 2.813-2.81zm23.782 0a.679.679 0 1 1-1.358 0 .679.679 0 0 1 1.358 0zm-2.362 0a.68.68 0 1 1-1.359-.002.68.68 0 0 1 1.359.002zm-16.84 0a.679.679 0 1 1-1.358 0 .679.679 0 0 1 1.357 0zm-2.365 0a.679.679 0 1 1-1.358 0 .679.679 0 0 1 1.358 0zM25.418 7.5a2.812 2.812 0 0 1 0 5.622 2.812 2.812 0 0 1-2.813-2.811A2.815 2.815 0 0 1 25.418 7.5zm0 30.191a2.812 2.812 0 1 1 .002 5.624 2.812 2.812 0 0 1-.002-5.624zm0-23.768a.68.68 0 1 1-.002 1.359.68.68 0 0 1 .002-1.359zm0 2.36a.679.679 0 1 1 0 1.358.679.679 0 0 1 0-1.357zm0 16.833a.679.679 0 1 1 0 1.357.679.679 0 0 1 0-1.357zm0 2.36a.679.679 0 1 1 0 1.358.679.679 0 0 1 0-1.358zm12.67-22.73a2.811 2.811 0 1 1-3.978 3.976 2.811 2.811 0 1 1 3.977-3.976zm-21.36 21.347a2.813 2.813 0 1 1-3.977 0 2.813 2.813 0 0 1 3.977 0zm16.815-16.807a.677.677 0 0 1 0 .96.677.677 0 0 1-.96 0 .677.677 0 0 1 0-.96.677.677 0 0 1 .96 0zm-1.671 1.67a.677.677 0 0 1 0 .959.676.676 0 0 1-.96 0 .677.677 0 0 1 0-.96.68.68 0 0 1 .96 0zM19.964 30.856a.676.676 0 0 1 0 .959.676.676 0 0 1-.959 0 .679.679 0 0 1 .959-.959zm-1.67 1.671a.677.677 0 0 1 0 .96.677.677 0 0 1-.96 0 .677.677 0 0 1 0-.96.677.677 0 0 1 .96 0zM12.75 12.744a2.812 2.812 0 1 1 3.978 3.977 2.812 2.812 0 0 1-3.978-3.977zm21.36 21.35a2.811 2.811 0 1 1 0 3.976 2.811 2.811 0 0 1 0-3.977zM17.292 17.285a.677.677 0 0 1 .96 0 .677.677 0 0 1 0 .96.677.677 0 0 1-.96 0 .677.677 0 0 1 0-.96zm1.671 1.67a.677.677 0 0 1 .96 0 .677.677 0 0 1 0 .959.677.677 0 0 1-.96 0 .677.677 0 0 1 0-.96zm11.908 11.901a.676.676 0 0 1 .96 0 .676.676 0 0 1 0 .959.676.676 0 0 1-.96 0 .68.68 0 0 1 0-.959zm1.671 1.671a.677.677 0 0 1 .96 0 .677.677 0 0 1 0 .96.677.677 0 0 1-.96 0 .677.677 0 0 1 0-.96z"/>
    </g>
</svg>
