<svg xmlns="http://www.w3.org/2000/svg" width="50" height="50" viewBox="0 0 50 50">
    <g fill="none" fill-rule="evenodd">
        <path fill="#A03914" d="M0 0h50v50H0z"/>
        <path fill="#FFF" d="M25.118 40.233h-4.155c.358-.685.533-1.38.473-2.09h7.46c-.063.71.023 1.407.378 2.09h-4.156zm4.701.813c.232 0 .422.192.422.43v2.131c0 .237-.19.43-.422.43h-9.4a.428.428 0 0 1-.424-.43v-2.13c0-.236.191-.43.425-.43h9.4zM20.644 17.94c-.757-.072-1.354-.911-1.354-1.947 0-.368.08-.708.21-1.001-.034-1.347-.16-2.89.26-4.197C20.242 8.632 22.463 7 25.066 7l.052.002L25.17 7c2.603 0 4.824 1.632 5.306 3.794.42 1.308.294 2.85.26 4.197.13.293.21.633.21 1 0 1.037-.597 1.876-1.354 1.948-.09.406-.152.83-.27 1.228-.165.56-.805 1.196-.954 1.763-.072.274.288.397.24.671-.056.315-.317.637-.492.898-.207.308-.439.6-.709.855a3.973 3.973 0 0 1-1.315.821 4.455 4.455 0 0 1-.82.207c-.086.014-.125.023-.154.003-.029.02-.068.01-.154-.003a4.468 4.468 0 0 1-.82-.207 3.98 3.98 0 0 1-1.315-.821 5.086 5.086 0 0 1-.71-.855c-.175-.261-.435-.583-.49-.898-.049-.274.31-.397.239-.671-.149-.567-.79-1.203-.955-1.763-.117-.397-.178-.822-.27-1.228zm16.015 9.43c.308.77.444 1.595.578 2.413-2.462 1.67-4.328 4.07-6.595 5.996-.577.49-1.18.948-1.782 1.407l-3.742.015h-.322l-3.42-.015c-.602-.459-1.204-.918-1.782-1.407-2.267-1.926-4.132-4.326-6.594-5.996.134-.818.27-1.643.577-2.414.308-.77.807-1.49 1.52-1.912.804-.477 1.754-.533 2.647-.726.447-.097.917-.2 1.316-.435.294-.175.53-.512.87-.59.105-.024.218-.022.324-.048.364-.093.584-.815 1.016-.646l.357 1.024c.162.919 1.073 1.715 1.767 2.26.446.353 1.084.474 1.711.451.606-.018 1.356-.15 1.737-.45.695-.546 1.606-1.342 1.768-2.261l.356-1.024c.432-.17.652.553 1.016.646.107.026.219.024.326.048.34.078.575.415.868.59.4.235.869.338 1.316.435.893.193 1.843.249 2.648.726.713.422 1.211 1.142 1.52 1.912z"/>
    </g>
</svg>
