<?xml version="1.0" encoding="UTF-8"?>
<svg width="50px" height="77px" viewBox="0 0 50 77" version="1.1" xmlns="http://www.w3.org/2000/svg" xmlns:xlink="http://www.w3.org/1999/xlink">
    <!-- Generator: Sketch 48.2 (47327) - http://www.bohemiancoding.com/sketch -->
    <title>auhtority-record-blue</title>
    <desc>Created with Sketch.</desc>
    <defs></defs>
    <g id="exportable-assets" stroke="none" stroke-width="1" fill="none" fill-rule="evenodd" transform="translate(-389.000000, -122.000000)">
        <path d="M413.887137,191.191415 L405.353497,191.191415 C406.087989,189.7867 406.448332,188.358528 406.324076,186.901378 L421.643485,186.901378 C421.515087,188.358528 421.691807,189.79084 422.420776,191.191415 L413.887137,191.191415 Z M423.541429,192.860928 C424.016364,192.860928 424.407081,193.255573 424.407081,193.744049 L424.407081,198.118259 C424.407081,198.603975 424.016364,199 423.541429,199 L404.237538,199 C403.758461,199 403.366364,198.603975 403.366364,198.118259 L403.366364,193.744049 C403.366364,193.261092 403.758461,192.860928 404.237538,192.860928 L423.541429,192.860928 Z M404.697424,145.431662 C403.144221,145.284015 401.918227,143.561929 401.918227,141.435539 C401.918227,140.680746 402.081141,139.983908 402.348982,139.380902 C402.279951,136.617009 402.020393,133.451571 402.883283,130.766331 C403.873191,126.328647 408.433394,122.979686 413.779172,122.979686 C413.815068,122.979686 413.850964,122.982446 413.88686,122.983825 C413.921376,122.982446 413.957272,122.979686 413.993168,122.979686 C419.338946,122.979686 423.899149,126.328647 424.889057,130.766331 C425.751947,133.451571 425.49377,136.617009 425.423358,139.380902 C425.6912,139.983908 425.854113,140.680746 425.854113,141.435539 C425.854113,143.561929 424.628119,145.284015 423.074916,145.431662 C422.888532,146.265108 422.761514,147.13719 422.521286,147.952697 C422.181652,149.102135 420.865917,150.408878 420.560799,151.570734 C420.413072,152.133724 421.151706,152.386242 421.053682,152.949231 C420.93909,153.595014 420.403408,154.255975 420.043065,154.791367 C419.617833,155.423351 419.141517,156.022217 418.587887,156.54657 C417.811976,157.279285 416.886957,157.853314 415.887385,158.23278 C415.379315,158.425963 414.740086,158.56947 414.203023,158.656402 C414.024923,158.68538 413.944847,158.703318 413.88686,158.663302 C413.827494,158.703318 413.747417,158.68538 413.569317,158.656402 C413.032254,158.56947 412.394405,158.425963 411.884955,158.23278 C410.885383,157.853314 409.961745,157.279285 409.184453,156.54657 C408.632204,156.022217 408.154508,155.423351 407.729275,154.791367 C407.368932,154.255975 406.83325,153.595014 406.720039,152.949231 C406.620634,152.386242 407.359268,152.133724 407.211541,151.570734 C406.906423,150.408878 405.590688,149.102135 405.251054,147.952697 C405.010826,147.13719 404.885189,146.265108 404.697424,145.431662 Z M437.588317,164.786367 C438.220643,166.367706 438.499529,168.062195 438.774273,169.741505 C433.718426,173.167739 429.885813,178.0939 425.230347,182.047247 C424.045771,183.051797 422.808732,183.994253 421.571692,184.936709 C419.219108,184.944988 416.330842,184.956027 413.887137,184.965686 L413.887137,184.968446 L413.565451,184.968446 L413.225817,184.968446 L413.225817,184.965686 C410.884278,184.956027 408.542739,184.944988 406.2012,184.936709 C404.965541,183.994253 403.728502,183.051797 402.542545,182.047247 C397.88708,178.0939 394.055847,173.167739 389,169.741505 C389.274744,168.062195 389.55363,166.367706 390.185956,164.786367 C390.816902,163.206408 391.841325,161.72856 393.306168,160.860617 C394.957395,159.882285 396.909598,159.767755 398.743067,159.37035 C399.661182,159.171648 400.626239,158.960527 401.444949,158.47757 C402.049662,158.120182 402.532881,157.427484 403.230096,157.267418 C403.448235,157.217743 403.678799,157.223262 403.896938,157.168067 C404.645236,156.977644 405.096701,155.495656 405.984442,155.843385 L406.717554,157.944938 C407.048904,159.831229 408.91965,161.465004 410.345835,162.585464 C411.262569,163.307139 412.571401,163.556897 413.859524,163.509981 C415.103467,163.472724 416.644244,163.202268 417.427058,162.585464 C418.854623,161.465004 420.725369,159.831229 421.056719,157.944938 L421.78845,155.843385 C422.676192,155.495656 423.127656,156.977644 423.875955,157.168067 C424.094093,157.223262 424.324657,157.217743 424.544177,157.267418 C425.241392,157.427484 425.724611,158.120182 426.327944,158.47757 C427.148034,158.960527 428.11171,159.171648 429.029826,159.37035 C430.864676,159.767755 432.815498,159.882285 434.468105,160.860617 C435.932948,161.72856 436.955991,163.206408 437.588317,164.786367 Z" id="auhtority-record-blue" fill="#225EAC"></path>
    </g>
</svg>