<?xml version="1.0" encoding="UTF-8"?>
<svg width="53px" height="61px" viewBox="0 0 53 61" version="1.1" xmlns="http://www.w3.org/2000/svg" xmlns:xlink="http://www.w3.org/1999/xlink">
    <!-- Generator: Sketch 48.2 (47327) - http://www.bohemiancoding.com/sketch -->
    <title>dll-work-blue</title>
    <desc>Created with Sketch.</desc>
    <defs></defs>
    <g id="exportable-assets" stroke="none" stroke-width="1" fill="none" fill-rule="evenodd" transform="translate(-544.000000, -131.000000)">
        <g id="dll-work-blue" transform="translate(544.000000, 130.979686)" fill="#005CB9">
            <path d="M51.4878874,13.2548339 C51.0813345,12.9354024 50.5604386,12.8609484 50.1014784,13.0642958 L27.9641965,22.7305015 C27.0026036,23.1524073 25.7964438,23.3557547 24.5585219,23.3557547 C22.8338483,23.3621593 21.0472389,22.9554646 19.8037587,22.4022636 C19.3567093,22.210925 18.9874767,21.9955689 18.7238526,21.8018285 C18.8199325,21.7545942 18.9287171,21.7041577 19.0589411,21.6545217 L39.1983966,12.8665525 L42.2046648,14.1642931 L42.2046648,10.3775486 C42.2046648,9.81474066 41.9688323,9.27995306 41.5591032,8.96372387 C41.1493741,8.64509294 40.6284782,8.5698384 40.1758705,8.77318578 L18.0203255,18.4361892 C17.3374436,18.7147911 16.7514358,19.0558383 16.2519792,19.5529986 C15.7652273,20.0349479 15.3427935,20.8291235 15.3491459,21.7105623 C15.3491459,21.7276414 15.3512633,33.0932121 15.3554983,55.8072744 C15.4110817,57.1210266 16.004236,57.8903842 16.5711867,58.3995532 C18.3609723,59.9887049 21.3640643,60.8797507 24.5553457,60.951803 C26.0688024,60.951803 27.6044925,60.7108283 29.0218693,60.1039885 L51.1655036,50.4281758 C51.7515115,50.1880017 52.1334489,49.5435347 52.1334489,48.8366223 L52.1334489,14.6710603 C52.1334489,14.1082524 51.8912641,13.5766672 51.4878874,13.2548339 Z" id="Fill-1"></path>
            <path d="M37.4459313,6.78454448 C37.4062289,6.27457487 37.2013643,5.79262557 36.8226031,5.50201495 C36.4168443,5.18338402 35.8951543,5.10812948 35.4361942,5.31147686 L13.2989123,14.9744803 C12.3373194,15.3939843 11.1311595,15.5997334 9.89323769,15.5997334 C8.16856405,15.6029357 6.38195463,15.1970416 5.13847446,14.6462424 C4.69777747,14.4557043 4.32298651,14.2395476 4.05936237,14.0490095 C4.15544225,13.998573 4.26660906,13.9521393 4.39365684,13.9017027 L24.5339064,5.11453412 L27.5362043,6.41227467 L27.5362043,2.62232786 C27.5362043,2.05871937 27.2940195,1.52393178 26.8850844,1.20850317 C26.4817077,0.889071655 25.9512832,0.814617694 25.4954993,1.01796507 L3.35504123,10.6809685 C2.6721594,10.9595704 2.0893277,11.2966147 1.58987111,11.7969773 C1.0999431,12.2789266 0.681479472,13.0731022 0.687037812,13.9585439 C0.687037812,13.9833619 0.693390201,14.0209892 0.693390201,14.0209892 L0.693390201,48.055256 C0.693390201,48.0672647 0.690214007,48.0864786 0.690214007,48.0984873 C0.690214007,48.1080943 0.693390201,48.1112966 0.693390201,48.1489239 L0.693390201,48.1921552 L0.696566396,48.1921552 C0.74659146,49.3962279 1.33895174,50.1655855 1.90669652,50.6691505 C3.69648214,52.260704 6.69878003,53.1213277 9.89323769,53.2021863 C10.7555745,53.2021863 11.6210875,53.0901051 12.4738958,52.9267867 L12.4738958,21.7826145 C12.4524564,20.1662431 13.0916656,18.6115162 14.2200087,17.4955074 C14.9521215,16.7661788 15.8422501,16.1913622 16.9467717,15.7470402 L37.4459313,6.78454448 Z" id="Fill-2"></path>
        </g>
    </g>
</svg>