<svg xmlns="http://www.w3.org/2000/svg" width="50" height="50" viewBox="0 0 50 50">
    <g fill="none" fill-rule="evenodd">
        <path fill="#A03914" d="M0 0h50v50H0z"/>
        <g fill="#FFF">
            <path d="M37.76 15.92a.705.705 0 0 0-.73-.1L25.39 20.904c-.506.222-1.14.33-1.791.33-.907.003-1.847-.211-2.5-.502-.236-.101-.43-.214-.569-.316.05-.025.108-.052.176-.078l10.592-4.624 1.58.683v-1.993c0-.296-.123-.577-.339-.743a.705.705 0 0 0-.727-.1l-11.652 5.084c-.359.146-.667.326-.93.587a1.63 1.63 0 0 0-.474 1.136c0 .013.003.032.003.032V38.31l-.002.024.002.014v.02h.003c.026.634.338 1.038.636 1.306.941.837 2.52 1.305 4.199 1.343.796 0 1.603-.126 2.349-.446l11.645-5.09c.308-.127.509-.466.509-.838V16.665a.956.956 0 0 0-.34-.746z"/>
            <path d="M30.375 12.515c-.02-.268-.129-.522-.328-.675a.706.706 0 0 0-.729-.1l-11.642 5.084c-.505.22-1.14.33-1.79.33-.908 0-1.847-.213-2.501-.502a3.09 3.09 0 0 1-.568-.315c.05-.026.11-.05.176-.077l10.592-4.624 1.579.683v-1.994a.94.94 0 0 0-.343-.744.708.708 0 0 0-.73-.1l-11.644 5.084c-.36.147-.666.324-.928.587a1.627 1.627 0 0 0-.475 1.138c0 .013.003.033.003.033V34.23l-.001.023.001.027v.023h.002c.026.633.338 1.038.636 1.303.941.837 2.52 1.29 4.2 1.333.454 0 .909-.06 1.357-.145V20.406a3.123 3.123 0 0 1 .919-2.255 4.209 4.209 0 0 1 1.434-.92l10.78-4.716z"/>
        </g>
    </g>
</svg>
