<?xml version="1.0" encoding="UTF-8"?>
<svg width="35px" height="35px" viewBox="0 0 35 35" version="1.1" xmlns="http://www.w3.org/2000/svg" xmlns:xlink="http://www.w3.org/1999/xlink">
    <!-- Generator: Sketch 48.2 (47327) - http://www.bohemiancoding.com/sketch -->
    <title>dll-work-on-blue</title>
    <desc>Created with Sketch.</desc>
    <defs></defs>
    <g id="exportable-assets" stroke="none" stroke-width="1" fill="none" fill-rule="evenodd" transform="translate(-98.000000, -659.000000)">
        <g id="dll-work-on-blue" transform="translate(98.000000, 659.000000)">
            <rect id="Rectangle-5" fill="#315375" x="0" y="0" width="35" height="35"></rect>
            <g id="Page-1" transform="translate(8.000000, 6.000000)" fill="#FFFFFF">
                <path d="M18.7316615,4.8435641 C18.582,4.72591026 18.3902462,4.69848718 18.2212923,4.77338462 L10.0720462,8.33366667 C9.71806154,8.4890641 9.27404615,8.56396154 8.81833846,8.56396154 C8.18344615,8.56632051 7.52575385,8.41652564 7.068,8.21276923 C6.90343077,8.14229487 6.76750769,8.06297436 6.67046154,7.99161538 C6.70583077,7.97421795 6.74587692,7.95564103 6.79381538,7.93735897 L14.2076154,4.70055128 L15.3142923,5.17853846 L15.3142923,3.78379487 C15.3142923,3.5765 15.2274769,3.37952564 15.0766462,3.26305128 C14.9258154,3.14569231 14.7340615,3.11797436 14.5674462,3.19287179 L6.41147692,6.75197436 C6.16009231,6.85458974 5.94436923,6.98020513 5.76050769,7.16332051 C5.58132308,7.34083333 5.42581538,7.63334615 5.42815385,7.958 C5.42815385,7.9674359 5.43049231,7.981 5.43049231,7.981 L5.43049231,20.5165897 C5.43049231,20.5213077 5.42932308,20.5269103 5.42932308,20.5328077 C5.42932308,20.5372308 5.43049231,20.5384103 5.43049231,20.5431282 L5.43049231,20.5569872 L5.43283077,20.5569872 C5.45095385,21.0004744 5.66930769,21.2838462 5.87801538,21.4713846 C6.53687692,22.0567051 7.64238462,22.3848974 8.81716923,22.4114359 C9.37430769,22.4114359 9.93963077,22.3226795 10.4614,22.0991667 L18.6129846,18.5353462 C18.8287077,18.4468846 18.9693077,18.2095128 18.9693077,17.949141 L18.9693077,5.36519231 C18.9693077,5.15789744 18.8801538,4.96210256 18.7316615,4.8435641 Z" id="Fill-1"></path>
                <path d="M13.5624923,2.46041026 C13.5478769,2.27257692 13.4724615,2.0950641 13.3330308,1.98802564 C13.1836615,1.87066667 12.9916154,1.84294872 12.8226615,1.91784615 L4.67341538,5.47694872 C4.31943077,5.63146154 3.87541538,5.70724359 3.41970769,5.70724359 C2.78481538,5.70842308 2.12712308,5.55892308 1.66936923,5.35605128 C1.50713846,5.28587179 1.36916923,5.20625641 1.27212308,5.13607692 C1.30749231,5.1175 1.34841538,5.10039744 1.39518462,5.08182051 L8.80927692,1.84530769 L9.91449231,2.32329487 L9.91449231,0.927371795 C9.91449231,0.719782051 9.82533846,0.522807692 9.6748,0.406628205 C9.52630769,0.288974359 9.33104615,0.261551282 9.16326154,0.336448718 L1.01284615,3.89555128 C0.761461538,3.99816667 0.546907692,4.12230769 0.363046154,4.30660256 C0.182692308,4.48411538 0.0286461538,4.77662821 0.0306923077,5.10275641 C0.0306923077,5.11189744 0.0330307692,5.12575641 0.0330307692,5.12575641 L0.0330307692,17.6613462 C0.0330307692,17.6657692 0.0318615385,17.6728462 0.0318615385,17.6772692 C0.0318615385,17.6808077 0.0330307692,17.6819872 0.0330307692,17.6958462 L0.0330307692,17.7117692 L0.0342,17.7117692 C0.0526153846,18.1552564 0.270676923,18.4386282 0.479676923,18.6241026 C1.13853846,19.2103077 2.24375385,19.5272949 3.41970769,19.5570769 C3.73715385,19.5570769 4.05576923,19.5157949 4.36970769,19.455641 L4.36970769,7.98453846 C4.36181538,7.38919231 4.59712308,6.81655128 5.01249231,6.4055 C5.282,6.13687179 5.60967692,5.92515385 6.01627692,5.7615 L13.5624923,2.46041026 Z" id="Fill-2"></path>
            </g>
        </g>
    </g>
</svg>