<?xml version="1.0" encoding="UTF-8"?>
<svg width="35px" height="35px" viewBox="0 0 35 35" version="1.1" xmlns="http://www.w3.org/2000/svg" xmlns:xlink="http://www.w3.org/1999/xlink">
    <!-- Generator: Sketch 48.2 (47327) - http://www.bohemiancoding.com/sketch -->
    <title>manuscript-on-blue</title>
    <desc>Created with Sketch.</desc>
    <defs></defs>
    <g id="exportable-assets" stroke="none" stroke-width="1" fill="none" fill-rule="evenodd" transform="translate(-221.000000, -659.000000)">
        <g id="manuscript-on-blue" transform="translate(221.000000, 659.000000)">
            <g id="Group-3">
                <rect id="Rectangle-5" fill="#315375" x="0" y="0" width="35" height="35"></rect>
                <path d="M10.8842294,24.9303727 C10.083803,27.1317136 9.47533572,18.1984634 11.2269623,16.4467518 C11.2617012,17.369229 11.5639651,17.5420783 11.7892306,18.353991 C12.2451334,16.8035069 12.2859605,15.0702227 12.8944278,13.5558564 C13.4735283,12.1148312 14.1926585,11.017662 15.3465618,10.0734404 C15.5578601,10.4390406 15.6882204,10.8319135 15.8937885,11.1860887 C17.1626523,6.65109785 21.8405806,7.04728762 24.9842687,5 C25.087769,5.81043843 24.6497728,6.71596241 24.5674023,7.523821 C24.4750041,8.41902561 24.4553068,9.27700682 24.1362107,10.0977646 C23.3375749,12.155003 21.839148,12.6488582 20.3031173,13.8768622 C21.0165174,13.8035211 21.6504122,13.6970105 22.379212,13.6723177 C21.1816166,13.966051 21.1132132,15.2069542 20.6698451,16.0406112 C20.0123136,17.2800403 19.1839528,17.4326194 18.0941553,18.0418303 C18.7588494,17.9006761 19.6835478,18.2434264 20.1466133,18.6709428 C18.5629509,19.7706919 18.2929189,21.7630658 16.90802,22.9766964 C15.7777535,23.9673551 12.943492,24.7718967 12.5907314,26.323855 L10,31 C10,31 14.7592243,14.6368095 20.2318489,10.5986222 C20.2304163,10.5986222 16.1512858,10.4390406 10.8842294,24.9303727 Z" id="Fill-1" fill="#FFFFFF"></path>
            </g>
            <g id="Page-1" transform="translate(10.000000, 5.000000)"></g>
        </g>
    </g>
</svg>