<svg xmlns="http://www.w3.org/2000/svg" width="50" height="50" viewBox="0 0 50 50">
    <g fill="none" fill-rule="evenodd">
        <path fill="#A03914" d="M0 0h50v50H0z"/>
        <path fill="#FFF" d="M15.263 35.472c-1.143 3.145-2.013-9.617.49-12.12.05 1.318.481 1.565.803 2.725.651-2.215.71-4.691 1.579-6.854.827-2.059 1.855-3.626 3.503-4.975.302.522.488 1.083.782 1.59C24.232 9.357 30.915 9.924 35.406 7c.148 1.158-.478 2.451-.595 3.605-.132 1.28-.16 2.505-.616 3.678-1.141 2.938-3.282 3.644-5.476 5.398 1.019-.105 1.924-.257 2.966-.292-1.711.42-1.809 2.192-2.442 3.383-.94 1.77-2.123 1.989-3.68 2.86.95-.202 2.27.287 2.932.898-2.262 1.571-2.648 4.417-4.626 6.151-1.615 1.415-5.664 2.565-6.168 4.782L14 44.143s6.799-23.376 14.617-29.145c-.002 0-5.83-.228-13.354 20.474z"/>
    </g>
</svg>
