<?xml version="1.0" encoding="UTF-8"?>
<svg width="42px" height="73px" viewBox="0 0 42 73" version="1.1" xmlns="http://www.w3.org/2000/svg" xmlns:xlink="http://www.w3.org/1999/xlink">
    <!-- Generator: Sketch 48.2 (47327) - http://www.bohemiancoding.com/sketch -->
    <title>manuscript-blue</title>
    <desc>Created with Sketch.</desc>
    <defs></defs>
    <g id="exportable-assets" stroke="none" stroke-width="1" fill="none" fill-rule="evenodd" transform="translate(-249.000000, -124.000000)">
        <g id="manuscript-blue" transform="translate(249.000000, 123.979686)" fill="#005CB9">
            <path d="M2.52236439,56.2260788 C0.285896231,62.373506 -1.41421983,37.4266637 3.47999304,32.5348637 C3.57705676,35.1109578 4.42161118,35.5936538 5.05102436,37.8609872 C6.32486059,33.5311318 6.43893547,28.6907919 8.13905154,24.4617983 C9.75711374,20.4376161 11.7664328,17.3736799 14.9905493,14.7368628 C15.5809369,15.7578318 15.945176,16.8549618 16.519553,17.8440255 C20.0648804,5.17968723 33.1354608,6.28608005 41.919227,0.568859494 C42.2084168,2.83207605 40.9846134,5.36082689 40.7544624,7.61683903 C40.4962929,10.1167722 40.4412567,12.5127559 39.5496715,14.8047901 C37.3182066,20.5497992 33.1314581,21.9289307 28.8396407,25.3582338 C30.8329492,25.1534225 32.6041119,24.8559829 34.6404487,24.7870263 C31.2942521,25.6073008 31.1031266,29.0726261 29.8643134,31.4006824 C28.0271073,34.8618908 25.7125879,35.2879807 22.667589,36.9892526 C24.5248082,36.595068 27.1085043,37.5522264 28.4023536,38.7461015 C23.9774489,41.8172421 23.2229536,47.3811115 19.3534134,50.7702757 C16.1953402,53.5367723 8.27614153,55.7835216 7.29049449,60.1174939 L0.0517425176,73.1760167 C0.0517425176,73.1760167 13.349472,27.4804496 28.64051,16.2034765 C28.6365074,16.2034765 17.2390253,15.7578318 2.52236439,56.2260788 Z" id="Fill-1"></path>
        </g>
    </g>
</svg>