<svg xmlns="http://www.w3.org/2000/svg" width="35" height="35" viewBox="0 0 35 35">
    <g fill="none" fill-rule="evenodd">
        <path fill="#315375" d="M0 0h35v35H0z"/>
        <path fill="#FFF" d="M18 7C11.934 7 7 11.934 7 18s4.934 11 11 11 11-4.934 11-11S24.066 7 18 7zm-.767 1.663v3.445H14.57c.623-1.756 1.532-3.043 2.662-3.445zm1.534 0c1.13.402 2.039 1.689 2.662 3.445h-2.662V8.663zm-4.308.56c-.563.795-1.044 1.77-1.423 2.885h-2.447a9.462 9.462 0 0 1 3.87-2.886zm7.082 0a9.463 9.463 0 0 1 3.87 2.885h-2.447c-.38-1.115-.86-2.09-1.423-2.886zm-11.943 4.42h2.998a19.212 19.212 0 0 0-.464 3.581H8.567a9.44 9.44 0 0 1 1.031-3.58zm4.525 0h3.11v3.581h-3.566c.046-1.256.2-2.476.456-3.58zm4.644 0h3.11c.255 1.105.41 2.325.456 3.581h-3.566v-3.58zm4.637 0h2.998a9.44 9.44 0 0 1 1.031 3.581h-3.565a19.212 19.212 0 0 0-.464-3.58zM8.567 18.76h3.565c.046 1.265.207 2.47.464 3.582H9.59a9.437 9.437 0 0 1-1.023-3.582zm5.1 0h3.566v3.582h-3.11a19.233 19.233 0 0 1-.456-3.582zm5.1 0h3.566a19.236 19.236 0 0 1-.455 3.582h-3.11v-3.582zm5.101 0h3.566a9.437 9.437 0 0 1-1.024 3.582h-3.005c.256-1.112.417-2.317.463-3.582zm-13.286 5.117h2.446c.38 1.12.865 2.103 1.43 2.902a9.468 9.468 0 0 1-3.876-2.902zm3.98 0h2.67v3.453c-1.13-.403-2.046-1.692-2.67-3.453zm4.206 0h2.67c-.624 1.761-1.539 3.05-2.67 3.453v-3.453zm4.205 0h2.446a9.47 9.47 0 0 1-3.877 2.902c.565-.799 1.05-1.781 1.43-2.902z"/>
    </g>
</svg>
