<svg xmlns="http://www.w3.org/2000/svg" width="50" height="50" viewBox="0 0 50 50">
    <g fill="none" fill-rule="evenodd">
        <path fill="#A03914" d="M0 0h50v50H0z"/>
        <path fill="#FFF" d="M25 9C16.177 9 9 16.177 9 25s7.177 16 16 16 16-7.177 16-16S33.823 9 25 9zm-1.116 2.419v5.011h-3.872c.907-2.555 2.23-4.426 3.872-5.011zm2.232 0c1.643.585 2.965 2.456 3.872 5.011h-3.872V11.42zm-6.267.814c-.819 1.157-1.518 2.575-2.07 4.197h-3.558a13.763 13.763 0 0 1 5.628-4.197zm10.302 0a13.764 13.764 0 0 1 5.628 4.197h-3.558c-.552-1.622-1.251-3.04-2.07-4.197zm-17.372 6.43h4.36a27.945 27.945 0 0 0-.674 5.209H11.28c.151-1.866.682-3.63 1.5-5.21zm6.582 0h4.523v5.209h-5.187c.067-1.827.293-3.602.663-5.21zm6.755 0h4.523c.371 1.607.596 3.382.663 5.209h-5.186v-5.21zm6.744 0h4.361a13.732 13.732 0 0 1 1.5 5.209h-5.186c-.07-1.836-.301-3.594-.675-5.21zm-21.58 7.442h5.185c.067 1.84.301 3.591.675 5.209h-4.372a13.726 13.726 0 0 1-1.489-5.21zm7.418 0h5.186v5.209h-4.523c-.37-1.61-.596-3.38-.663-5.21zm7.419 0h5.186c-.067 1.828-.292 3.6-.663 5.209h-4.523v-5.21zm7.418 0h5.187a13.727 13.727 0 0 1-1.489 5.209h-4.372c.374-1.618.608-3.37.675-5.21zM14.21 33.546h3.558c.554 1.631 1.259 3.06 2.081 4.221a13.772 13.772 0 0 1-5.64-4.22zm5.79 0h3.884v5.024c-1.645-.586-2.977-2.461-3.884-5.024zm6.117 0H30c-.907 2.563-2.239 4.438-3.884 5.024v-5.024zm6.116 0h3.558a13.774 13.774 0 0 1-5.64 4.221c.823-1.16 1.528-2.59 2.082-4.22z"/>
    </g>
</svg>
