<?xml version="1.0" encoding="UTF-8"?>
<svg width="60px" height="60px" viewBox="0 0 60 60" version="1.1" xmlns="http://www.w3.org/2000/svg" xmlns:xlink="http://www.w3.org/1999/xlink">
    <!-- Generator: sketchtool 48.2 (47327) - http://www.bohemiancoding.com/sketch -->
    <title>059220CC-830F-4D57-B039-50BC99144CB8</title>
    <desc>Created with sketchtool.</desc>
    <defs></defs>
    <g id="exportable-assets" stroke="none" stroke-width="1" fill="none" fill-rule="evenodd" transform="translate(-708.000000, -131.000000)">
        <path d="M738,131 C721.457442,131 708,144.457442 708,161 C708,177.542558 721.457442,191 738,191 C754.542558,191 768,177.542558 768,161 C768,144.457442 754.542558,131 738,131 Z M735.906977,135.534884 L735.906977,144.93186 L728.646977,144.93186 C730.347558,140.140791 732.827581,136.633023 735.906977,135.534884 Z M740.093023,135.534884 C743.172628,136.633163 745.652651,140.140651 747.353023,144.93186 L740.093023,144.93186 L740.093023,135.534884 Z M728.341395,137.061047 C726.80707,139.230395 725.496209,141.890279 724.460581,144.931512 L717.78907,144.931512 C720.544326,141.467698 724.168953,138.742372 728.341395,137.061047 Z M747.658605,137.061047 C751.831047,138.742581 755.455814,141.467837 758.21093,144.931512 L751.539419,144.931512 C750.503791,141.89007 749.19293,139.230186 747.658605,137.061047 Z M715.085581,149.117558 L723.261628,149.117558 C722.561233,152.145326 722.127907,155.442953 721.997093,158.885 L712.272907,158.885 C712.556337,155.385744 713.551047,152.079953 715.085372,149.117558 L715.085581,149.117558 Z M727.426047,149.117558 L735.906977,149.117558 L735.906977,158.885 L726.182791,158.885 C726.308156,155.459279 726.730577,152.131721 727.425488,149.117558 L727.426047,149.117558 Z M740.093023,149.117558 L748.573953,149.117558 C749.2689,152.131721 749.691349,155.459279 749.816651,158.885 L740.092465,158.885 L740.093023,149.117558 Z M752.738372,149.117558 L760.914419,149.117558 C762.448744,152.079953 763.443488,155.385744 763.726884,158.885 L754.002698,158.885 C753.871884,155.442953 753.438565,152.145326 752.738163,149.117558 L752.738372,149.117558 Z M712.273256,163.071047 L721.997442,163.071047 C722.122807,166.521256 722.561574,169.805209 723.261977,172.838488 L715.064302,172.838488 C713.535419,169.873372 712.551558,166.570302 712.273605,163.071047 L712.273256,163.071047 Z M726.183488,163.071047 L735.907674,163.071047 L735.907674,172.838488 L727.426744,172.838488 C726.731798,169.821605 726.309349,166.499488 726.184047,163.071047 L726.183488,163.071047 Z M740.093721,163.071047 L749.817907,163.071047 C749.692542,166.499488 749.270121,169.821605 748.575209,172.838488 L740.094279,172.838488 L740.093721,163.071047 Z M754.003953,163.071047 L763.72814,163.071047 C763.450158,166.570302 762.466326,169.873372 760.937442,172.838488 L752.739767,172.838488 C753.440163,169.805209 753.87893,166.521256 754.004302,163.071047 L754.003953,163.071047 Z M717.76814,177.024535 L724.439651,177.024535 C725.478,180.082302 726.799744,182.761302 728.342302,184.938953 C724.158977,183.254698 720.526256,180.502163 717.768349,177.024535 L717.76814,177.024535 Z M728.625349,177.024535 L735.907674,177.024535 L735.907674,186.44314 C732.822628,185.34486 730.326279,181.829209 728.625349,177.024535 Z M740.093721,177.024535 L747.376047,177.024535 C745.675465,181.829209 743.179116,185.345 740.093721,186.44314 L740.093721,177.024535 Z M751.562093,177.024535 L758.233605,177.024535 C755.475628,180.502023 751.842767,183.254558 747.659651,184.938953 C749.20214,182.761442 750.523953,180.082512 751.562302,177.024535 L751.562093,177.024535 Z" id="webpage-blue" fill="#005CB9"></path>
    </g>
</svg>